<svg width="119" height="108" viewBox="0 0 119 108" fill="none" xmlns="http://www.w3.org/2000/svg">
<g clipPath="url(#clip0_489_1294)">
<path d="M172.208 69.611C172.208 69.611 218.869 82.3703 236.447 112.195C254.026 142.02 234.121 199.882 189.054 206.1C143.988 212.316 74.0179 184.605 55.4919 176.315C11.4161 156.689 -10.0401 -6.53613 172.208 69.611Z" fill="#32E0C4"/>
</g>
<path fillRule="evenodd" clipRule="evenodd" d="M5.91331 35.5C5.91331 34.1193 7.08781 33 8.53663 33H76.7429C78.1917 33 79.3662 34.1193 79.3662 35.5V78C79.3662 79.3807 78.1917 80.5 76.7429 80.5H8.53663C7.08781 80.5 5.91331 79.3807 5.91331 78V35.5ZM11.16 38V75.5H74.1196V38H11.16Z" fill="#222831"/>
<path fillRule="evenodd" clipRule="evenodd" d="M42.6398 75.5C43.5169 75.5 44.336 75.9178 44.8225 76.6132L60.5624 99.1132C61.3661 100.262 61.0403 101.814 59.8348 102.58C58.6294 103.346 57.0006 103.036 56.197 101.887L42.6398 82.5069L29.0826 101.887C28.2789 103.036 26.6502 103.346 25.4447 102.58C24.2392 101.814 23.9135 100.262 24.7171 99.1132L40.457 76.6132C40.9436 75.9178 41.7627 75.5 42.6398 75.5Z" fill="#222831"/>
<path fillRule="evenodd" clipRule="evenodd" d="M16.4066 45.5C16.4066 44.1193 17.5811 43 19.0299 43H34.7698C36.2186 43 37.3931 44.1193 37.3931 45.5C37.3931 46.8807 36.2186 48 34.7698 48H19.0299C17.5811 48 16.4066 46.8807 16.4066 45.5ZM16.4066 55.5C16.4066 54.1193 17.5811 53 19.0299 53H34.7698C36.2186 53 37.3931 54.1193 37.3931 55.5C37.3931 56.8807 36.2186 58 34.7698 58H19.0299C17.5811 58 16.4066 56.8807 16.4066 55.5ZM16.4066 65.5C16.4066 64.1193 17.5811 63 19.0299 63H34.7698C36.2186 63 37.3931 64.1193 37.3931 65.5C37.3931 66.8807 36.2186 68 34.7698 68H19.0299C17.5811 68 16.4066 66.8807 16.4066 65.5Z" fill="#222831"/>
<path fillRule="evenodd" clipRule="evenodd" d="M55.7564 48C51.4099 48 47.8864 51.3579 47.8864 55.5C47.8864 59.6421 51.4099 63 55.7564 63C60.1028 63 63.6263 59.6421 63.6263 55.5C63.6263 51.3579 60.1028 48 55.7564 48ZM42.6398 55.5C42.6398 48.5964 48.5123 43 55.7564 43C63.0005 43 68.873 48.5964 68.873 55.5C68.873 62.4036 63.0005 68 55.7564 68C48.5123 68 42.6398 62.4036 42.6398 55.5Z" fill="black"/>
<defs>
<clipPath id="clip0_489_1294">
<rect width="111.229" height="108" fill="white" transform="translate(6.43816)"/>
</clipPath>
</defs>
</svg>
