<svg width="22" height="22" viewBox="0 0 22 22" fill="none" xmlns="http://www.w3.org/2000/svg">
<path d="M20.8881 15.9562V18.9562C20.8892 19.2347 20.8322 19.5104 20.7206 19.7656C20.6091 20.0208 20.4454 20.2498 20.2402 20.4381C20.035 20.6264 19.7927 20.7697 19.5289 20.8589C19.265 20.9482 18.9855 20.9813 18.7081 20.9562C15.631 20.6219 12.6751 19.5704 10.0781 17.8862C7.66194 16.3509 5.61345 14.3024 4.07812 11.8862C2.38809 9.27743 1.33636 6.30722 1.00812 3.21623C0.983127 2.9397 1.01599 2.66099 1.10462 2.39785C1.19324 2.13472 1.33569 1.89292 1.52288 1.68785C1.71008 1.48278 1.93792 1.31894 2.19191 1.20675C2.44589 1.09456 2.72046 1.03649 2.99812 1.03623H5.99812C6.48342 1.03145 6.95391 1.20331 7.32188 1.51976C7.68985 1.83622 7.93019 2.27568 7.99812 2.75623C8.12474 3.7163 8.35957 4.65896 8.69812 5.56623C8.83266 5.92415 8.86178 6.31314 8.78202 6.68711C8.70227 7.06108 8.51698 7.40434 8.24812 7.67623L6.97812 8.94623C8.40167 11.4498 10.4746 13.5227 12.9781 14.9462L14.2481 13.6762C14.52 13.4074 14.8633 13.2221 15.2372 13.1423C15.6112 13.0626 16.0002 13.0917 16.3581 13.2262C17.2654 13.5648 18.2081 13.7996 19.1681 13.9262C19.6539 13.9948 20.0975 14.2394 20.4146 14.6137C20.7318 14.988 20.9003 15.4658 20.8881 15.9562Z" stroke="#32E0C4" stroke-width="2" stroke-linecap="round" stroke-linejoin="round"/>
</svg>
