<svg width="118" height="108" viewBox="0 0 118 108" fill="none" xmlns="http://www.w3.org/2000/svg">
<g clipPath="url(#clip0_1734_2027)">
<path d="M65.6031 32.4747C34.8541 41.8155 -28.5862 94.0167 113.313 150.723C180.544 177.588 153.159 237.766 183.529 228.549C237.683 212.017 257.772 141.754 238.915 94.7192C220.058 47.6847 128.996 13.1318 65.6031 32.4747Z" fill="#32E0C4"/>
<path fillRule="evenodd" clipRule="evenodd" d="M5.04279 41.5C5.04279 37.3579 8.42935 34 12.6069 34H68.077C72.2545 34 75.6411 37.3579 75.6411 41.5C75.6411 45.6421 72.2545 49 68.077 49H12.6069C8.42935 49 5.04279 45.6421 5.04279 41.5ZM12.6069 39C11.2144 39 10.0855 40.1193 10.0855 41.5C10.0855 42.8807 11.2144 44 12.6069 44H68.077C69.4695 44 70.5983 42.8807 70.5983 41.5C70.5983 40.1193 69.4695 39 68.077 39H12.6069Z" fill="#222831"/>
<path fillRule="evenodd" clipRule="evenodd" d="M5.04279 81.5C5.04279 77.3579 8.42935 74 12.6069 74H68.077C72.2545 74 75.6411 77.3579 75.6411 81.5C75.6411 85.6421 72.2545 89 68.077 89H12.6069C8.42935 89 5.04279 85.6421 5.04279 81.5ZM12.6069 79C11.2144 79 10.0855 80.1193 10.0855 81.5C10.0855 82.8807 11.2144 84 12.6069 84H68.077C69.4695 84 70.5983 82.8807 70.5983 81.5C70.5983 80.1193 69.4695 79 68.077 79H12.6069Z" fill="#222831"/>
<path fillRule="evenodd" clipRule="evenodd" d="M10.0855 46.5C10.0855 45.1193 11.2144 44 12.6069 44H68.077C69.4695 44 70.5983 45.1193 70.5983 46.5V76.5C70.5983 77.8807 69.4695 79 68.077 79H12.6069C11.2144 79 10.0855 77.8807 10.0855 76.5V46.5ZM15.1282 49V74H65.5556V49H15.1282Z" fill="#222831"/>
<path fillRule="evenodd" clipRule="evenodd" d="M40.3419 84C41.1519 84 41.9125 84.3858 42.3865 85.037L53.3043 100.037C54.1192 101.157 53.8645 102.719 52.7353 103.527C51.6061 104.335 50.0301 104.083 49.2152 102.963L40.3419 90.772L31.4686 102.963C30.6537 104.083 29.0777 104.335 27.9486 103.527C26.8194 102.719 26.5646 101.157 27.3795 100.037L38.2974 85.037C38.7714 84.3858 39.532 84 40.3419 84Z" fill="#222831"/>
<path fillRule="evenodd" clipRule="evenodd" d="M59.8502 52.3107C60.7911 53.3285 60.7218 54.9099 59.6953 55.8429L44.5671 69.5929C43.6889 70.3911 42.3672 70.4709 41.3978 69.7843L34.18 64.6725L26.8546 70.8982C25.7973 71.7967 24.2056 71.6753 23.2994 70.627C22.3931 69.5787 22.5156 68.0004 23.5729 67.1019L32.3976 59.6019C33.2783 58.8535 34.5602 58.7972 35.504 59.4657L42.6659 64.538L56.2878 52.1571C57.3143 51.2241 58.9092 51.2929 59.8502 52.3107Z" fill="black"/>
</g>
<defs>
<clipPath id="clip0_1734_2027">
<rect width="118" height="108" fill="white"/>
</clipPath>
</defs>
</svg>
