<svg width="119" height="108" viewBox="0 0 119 108" fill="none" xmlns="http://www.w3.org/2000/svg">
<g clipPath="url(#clip0_1734_2041)">
<g clipPath="url(#clip1_1734_2041)">
<path d="M126.806 187.011C149.866 159.62 189.759 155.552 225.732 158.991C230.686 159.72 235.765 158.877 240.116 156.602C244.468 154.328 247.826 150.76 249.627 146.5C251.428 142.24 251.563 137.545 250.008 133.206C248.454 128.865 245.304 125.144 241.09 122.667C203.226 98.5897 137.505 34.3288 79.3492 52.7847C-49.0014 94.1014 61.0857 264.61 126.806 187.011Z" fill="#32E0C4"/>
<path fillRule="evenodd" clipRule="evenodd" d="M25.547 36.5C25.547 35.1193 26.6759 34 28.0684 34H53.282C54.6746 34 55.8034 35.1193 55.8034 36.5V46.5C55.8034 47.8807 54.6746 49 53.282 49H28.0684C26.6759 49 25.547 47.8807 25.547 46.5V36.5ZM30.5897 39V44H50.7607V39H30.5897Z" fill="#222831"/>
<path fillRule="evenodd" clipRule="evenodd" d="M5.3761 46.5C5.3761 45.1193 6.50495 44 7.89747 44H73.453C74.8455 44 75.9744 45.1193 75.9744 46.5V91.5C75.9744 92.8807 74.8455 94 73.453 94H7.89747C6.50495 94 5.3761 92.8807 5.3761 91.5V46.5ZM10.4188 49V89H70.9317V49H10.4188Z" fill="#222831"/>
<path fillRule="evenodd" clipRule="evenodd" d="M5.3761 46.5C5.3761 45.1193 6.50495 44 7.89747 44H73.453C74.8455 44 75.9744 45.1193 75.9744 46.5V64C75.9744 65.1917 75.1261 66.2177 73.9475 66.4515L48.7338 71.4515C47.3684 71.7222 46.04 70.8442 45.7669 69.4903C45.4939 68.1364 46.3794 66.8193 47.7449 66.5485L70.9317 61.9505V49H10.4188V61.9505L33.6056 66.5485C34.9711 66.8193 35.8566 68.1364 35.5835 69.4903C35.3105 70.8442 33.9821 71.7222 32.6167 71.4515L7.40299 66.4515C6.22444 66.2177 5.3761 65.1917 5.3761 64V46.5Z" fill="#222831"/>
<path fillRule="evenodd" clipRule="evenodd" d="M33.1112 64C33.1112 62.6193 34.2401 61.5 35.6326 61.5H45.718C47.1106 61.5 48.2394 62.6193 48.2394 64V74C48.2394 75.3807 47.1106 76.5 45.718 76.5H35.6326C34.2401 76.5 33.1112 75.3807 33.1112 74V64ZM38.1539 66.5V71.5H43.1967V66.5H38.1539Z" fill="#222831"/>
</g>
</g>
<defs>
<clipPath id="clip0_1734_2041">
<rect width="118" height="108" fill="white" transform="translate(0.333374)"/>
</clipPath>
<clipPath id="clip1_1734_2041">
<rect width="275.333" height="252" fill="white" transform="translate(0.333374)"/>
</clipPath>
</defs>
</svg>
