<svg width="32" height="32" viewBox="0 0 32 32" fill="none" xmlns="http://www.w3.org/2000/svg">
<g clipPath="url(#clip0_1746_2446)">
<g clipPath="url(#clip1_1746_2446)">
<path d="M-20.706 72.0714C-20.0726 64.3994 -20.1758 56.5028 -15.9929 50.1495C-7.30333 36.9184 10.3555 44.95 19.3545 36.2742C30.4742 25.6204 17.97 12.4793 9.67813 11.2656C-10.087 8.37364 -31.1481 8.40361 -37.4519 16.1954C-47.2461 28.3326 -41.3547 57.2071 -32.8125 72.386C-24.2701 87.565 -21.2656 78.7243 -20.706 72.0714Z" fill="#32E0C4"/>
</g>
<path d="M2.60001 6L6.80001 6V7.06667L6.80001 9.13333L6.80001 10.2L2.60001 10.2V9.13333L2.60001 7.06667L2.60001 6Z" stroke="white" stroke-width="2"/>
<path d="M2.60001 21.7998H6.80001V22.8665L6.80001 24.9331L6.80001 25.9998H2.60001V24.9331L2.60001 22.8665L2.60001 21.7998Z" stroke="white" stroke-width="2"/>
<path d="M13.8 6L18 6V7.06667V9.13333L18 10.2H13.8V9.13333V7.06667V6Z" stroke="white" stroke-width="2"/>
<path d="M13.8 21.7998H18V22.8665V24.9331L18 25.9998H13.8V24.9331V22.8665V21.7998Z" stroke="white" stroke-width="2"/>
<path d="M29.2 13.7998L29.2 17.9998L28.1333 17.9998L26.0667 17.9998L25 17.9998L25 13.7998L26.0667 13.7998L28.1333 13.7998L29.2 13.7998Z" stroke="white" stroke-width="2"/>
<path d="M19.5923 16.0414L15.7627 21.1998M19.5923 16.0414L15.7627 10.7998M19.5923 16.0414H8.42957M19.5923 16.0414H24M8.42957 16.0414L4.60001 21.1998M8.42957 16.0414L4.60001 10.7998" stroke="white" stroke-width="2" stroke-linecap="round"/>
</g>
<defs>
<clipPath id="clip0_1746_2446">
<rect width="32" height="32" fill="white"/>
</clipPath>
<clipPath id="clip1_1746_2446">
<rect width="37" height="38" fill="white" transform="matrix(-1 0 0 1 33 0)"/>
</clipPath>
</defs>
</svg>
