<svg width="32" height="32" viewBox="0 0 32 32" fill="none" xmlns="http://www.w3.org/2000/svg">
<g clipPath="url(#clip0_1746_8512)">
<g clipPath="url(#clip1_1746_8512)">
<path d="M48.706 72.0714C48.0726 64.3994 48.1758 56.5028 43.9929 50.1495C35.3033 36.9184 17.6445 44.95 8.64554 36.2742C-2.47418 25.6204 10.03 12.4793 18.3219 11.2656C38.087 8.37364 59.1481 8.40361 65.4519 16.1954C75.2461 28.3326 69.3547 57.2071 60.8125 72.386C52.2701 87.565 49.2656 78.7243 48.706 72.0714Z" fill="#32E0C4"/>
</g>
<path d="M28.4629 4.71605C28.2945 4.12658 27.8734 3.70552 27.7892 3.62131L26.6103 2.44237C25.8524 1.68447 25.0103 1.51605 24.084 1.76868C23.4945 1.9371 23.0734 2.35816 22.9892 2.44237L8.4208 17.095L9.59974 18.2739L24.2524 3.70552C24.505 3.45289 25.0103 3.20026 25.5155 3.70552L26.6945 4.88447C26.6945 4.88447 26.8629 5.05289 26.9471 5.30553C27.0313 5.47395 27.0313 5.72658 26.6945 6.14763L10.8629 21.895L7.24185 18.2739L3.36816 22.1476V31.7476L27.8734 7.24237C28.5471 6.56868 28.7997 5.64237 28.4629 4.71605ZM5.05237 27.7055V22.8213L7.24185 20.6318L9.68395 23.0739L5.05237 27.7055Z" fill="white"/>
</g>
<defs>
<clipPath id="clip0_1746_8512">
<rect width="32" height="32" fill="white"/>
</clipPath>
<clipPath id="clip1_1746_8512">
<rect width="37" height="38" fill="white" transform="translate(-5)"/>
</clipPath>
</defs>
</svg>
