<svg width="32" height="32" viewBox="0 0 32 32" fill="none" xmlns="http://www.w3.org/2000/svg">
<g clipPath="url(#clip0_1746_2468)">
<g clipPath="url(#clip1_1746_2468)">
<path d="M55.706 -40.0714C55.0726 -32.3994 55.1758 -24.5028 50.9929 -18.1495C42.3033 -4.91842 24.6445 -12.95 15.6455 -4.27416C4.52582 6.37962 17.03 19.5207 25.3219 20.7344C45.087 23.6264 66.1481 23.5964 72.4519 15.8046C82.2461 3.66737 76.3547 -25.2071 67.8125 -40.386C59.2701 -55.565 56.2656 -46.7243 55.706 -40.0714Z" fill="#32E0C4"/>
</g>
<path fillRule="evenodd" clipRule="evenodd" d="M3 2C3.55228 2 4 2.44772 4 3V28H29C29.5523 28 30 28.4477 30 29C30 29.5523 29.5523 30 29 30H3C2.44772 30 2 29.5523 2 29V3C2 2.44772 2.44772 2 3 2Z" fill="white"/>
<path fillRule="evenodd" clipRule="evenodd" d="M29.3511 6.06394C29.8682 6.25786 30.1302 6.83427 29.9363 7.35139L25.4363 19.3514C25.2899 19.7417 24.9168 20.0003 24.5 20.0003H19.5352L15.832 25.555C15.6659 25.8042 15.3967 25.9659 15.0985 25.9954C14.8004 26.0249 14.5047 25.9192 14.2929 25.7074L11.4171 22.8316L7.61393 25.7896C7.17798 26.1287 6.5497 26.0502 6.21063 25.6142C5.87156 25.1783 5.9501 24.55 6.38604 24.2109L10.886 20.7109C11.2841 20.4013 11.8505 20.4366 12.2071 20.7932L14.8446 23.4306L18.1679 18.4456C18.3534 18.1674 18.6656 18.0003 19 18.0003H23.807L28.0637 6.64915C28.2576 6.13203 28.834 5.87002 29.3511 6.06394Z" fill="white"/>
</g>
<defs>
<clipPath id="clip0_1746_2468">
<rect width="32" height="32" fill="white"/>
</clipPath>
<clipPath id="clip1_1746_2468">
<rect width="37" height="38" fill="white" transform="matrix(1 0 0 -1 2 32)"/>
</clipPath>
</defs>
</svg>
