<svg width="32" height="32" viewBox="0 0 32 32" fill="none" xmlns="http://www.w3.org/2000/svg">
<g clipPath="url(#clip0_1746_2508)">
<g clipPath="url(#clip1_1746_2508)">
<path d="M51.706 -35.0714C51.0726 -27.3994 51.1758 -19.5028 46.9929 -13.1495C38.3033 0.081583 20.6445 -7.95003 11.6455 0.725843C0.525822 11.3796 13.03 24.5207 21.3219 25.7344C41.087 28.6264 62.1481 28.5964 68.4519 20.8046C78.2461 8.66737 72.3547 -20.2071 63.8125 -35.386C55.2701 -50.565 52.2656 -41.7243 51.706 -35.0714Z" fill="#32E0C4"/>
</g>
<path fillRule="evenodd" clipRule="evenodd" d="M2 5C2 4.44772 2.44772 4 3 4H29C29.5523 4 30 4.44772 30 5V22C30 22.5523 29.5523 23 29 23H18.8868L16.866 26.5C16.6874 26.8094 16.3573 27 16 27C15.6427 27 15.3126 26.8094 15.134 26.5L13.1132 23H3C2.44772 23 2 22.5523 2 22V5ZM4 6V21H13.6906C14.0479 21 14.378 21.1906 14.5566 21.5L16 24L17.4434 21.5C17.622 21.1906 17.9521 21 18.3094 21H28V6H4Z" fill="white"/>
<path fillRule="evenodd" clipRule="evenodd" d="M15.94 11.5457C15.8884 11.4812 15.8327 11.419 15.773 11.3592C14.8943 10.4805 13.4697 10.4805 12.591 11.3592C11.7123 12.2379 11.7123 13.6625 12.591 14.5412C12.6507 14.6009 12.713 14.6566 12.7775 14.7082L12.7678 14.718L15.9497 17.8999L19.1317 14.718L19.122 14.7083C19.1865 14.6566 19.2488 14.6009 19.3085 14.5412C20.1872 13.6625 20.1872 12.2379 19.3085 11.3592C18.4298 10.4805 17.0052 10.4805 16.1265 11.3592C16.0668 11.419 16.0111 11.4812 15.9595 11.5457L15.9497 11.536L15.94 11.5457Z" fill="white"/>
</g>
<defs>
<clipPath id="clip0_1746_2508">
<rect width="32" height="32" fill="white"/>
</clipPath>
<clipPath id="clip1_1746_2508">
<rect width="37" height="38" fill="white" transform="matrix(1 0 0 -1 -2 37)"/>
</clipPath>
</defs>
</svg>
