<svg width="32" height="32" viewBox="0 0 32 32" fill="none" xmlns="http://www.w3.org/2000/svg">
<g clipPath="url(#clip0_1746_10839)">
<g clipPath="url(#clip1_1746_10839)">
<path d="M53.706 -43.0714C53.0726 -35.3994 53.1758 -27.5028 48.9929 -21.1495C40.3033 -7.91842 22.6445 -15.95 13.6455 -7.27416C2.52582 3.37962 15.03 16.5207 23.3219 17.7344C43.087 20.6264 64.1481 20.5964 70.4519 12.8046C80.2461 0.667368 74.3547 -28.2071 65.8125 -43.386C57.2701 -58.565 54.2656 -49.7243 53.706 -43.0714Z" fill="#32E0C4"/>
</g>
<path d="M21.8947 25.2632V26.9474H10.1052V25.2632H21.8947ZM22.7368 0H9.26314C7.94103 0 5.54103 0.72421 5.1284 3.36842H6.8463C7.27577 1.80211 8.90103 1.69263 9.26314 1.68421H22.7368C25.1116 1.68421 25.2547 3.78947 25.2631 4.21053V27.7811C25.2547 28.2105 25.1116 30.3158 22.7368 30.3158H9.26314C6.8884 30.3158 6.74524 28.2105 6.73682 27.7895V18.5263H16.8421C20.5558 18.5263 23.5789 15.5032 23.5789 11.7895C23.5789 8.07579 20.5558 5.05263 16.8421 5.05263C13.1284 5.05263 10.1052 8.07579 10.1052 11.7895V12.2863L8.17682 10.3495L6.98103 11.5453L10.9473 15.5032L14.9137 11.5453L13.7179 10.3495L11.7895 12.2863V11.7895C11.7895 9.00211 14.0547 6.73684 16.8421 6.73684C19.6295 6.73684 21.8947 9.00211 21.8947 11.7895C21.8947 14.5768 19.6295 16.8421 16.8421 16.8421H6.73682V5.05263H5.05261V27.7895C5.05261 29.2463 5.9284 32 9.26314 32H22.7368C26.0716 32 26.9473 29.2463 26.9473 27.7895V4.21053C26.9473 2.75368 26.0716 0 22.7368 0Z" fill="white"/>
</g>
<defs>
<clipPath id="clip0_1746_10839">
<rect width="32" height="32" fill="white"/>
</clipPath>
<clipPath id="clip1_1746_10839">
<rect width="37" height="38" fill="white" transform="matrix(1 0 0 -1 0 29)"/>
</clipPath>
</defs>
</svg>
