<svg width="32" height="32" viewBox="0 0 32 32" fill="none" xmlns="http://www.w3.org/2000/svg">
<g clipPath="url(#clip0_493_1259)">
<g clipPath="url(#clip1_493_1259)">
<path d="M-24.706 -38.0714C-24.0726 -30.3994 -24.1758 -22.5028 -19.9929 -16.1495C-11.3033 -2.91842 6.35554 -10.95 15.3545 -2.27416C26.4742 8.37962 13.97 21.5207 5.67813 22.7344C-14.087 25.6264 -35.1481 25.5964 -41.4519 17.8046C-51.2461 5.66737 -45.3547 -23.2071 -36.8125 -38.386C-28.2701 -53.565 -25.2656 -44.7243 -24.706 -38.0714Z" fill="#32E0C4"/>
</g>
<path fillRule="evenodd" clipRule="evenodd" d="M22.1841 14.126C22.5985 14.1265 22.9697 14.3825 23.1173 14.7697C23.1557 14.8705 23.1875 14.9746 23.2124 15.0816L23.2124 15.0816C23.2547 15.2629 23.4626 15.349 23.6207 15.2507C25.6621 13.9816 28.0185 16.3381 26.7495 18.3795C26.6512 18.5376 26.7373 18.7454 26.9186 18.7877C29.2595 19.3339 29.2595 22.6664 26.9186 23.2126C26.7373 23.2549 26.6512 23.4627 26.7495 23.6208C28.0185 25.6622 25.6621 28.0187 23.6207 26.7496C23.4626 26.6514 23.2547 26.7375 23.2124 26.9187C22.6663 29.2596 19.3338 29.2596 18.7876 26.9187C18.7453 26.7375 18.5374 26.6514 18.3794 26.7496C16.3379 28.0187 13.9815 25.6622 15.2505 23.6208C15.3488 23.4627 15.2627 23.2549 15.0814 23.2126C15.0814 23.2126 15.0814 23.2126 15.0814 23.2126M22.1841 14.126C21.7697 14.1255 21.3979 14.3806 21.2494 14.7675L22.1841 14.126ZM21.2494 14.7675C21.1817 14.9438 21.0429 15.0965 20.7751 15.159L21.2494 14.7675ZM22.0386 16.7796C21.8001 16.9245 21.5298 17.0366 21.2295 17.1067C20.8202 17.2021 20.6059 17.6367 20.7522 18.0103C20.834 18.0036 20.9167 18.0002 21 18.0002C22.6569 18.0002 24 19.3433 24 21.0002C24 22.657 22.6569 24.0002 21 24.0002C19.7726 24.0002 18.7178 23.2634 18.2531 22.2076C17.8721 22.1649 17.4879 22.0359 17.1225 21.8088L17.5401 21.1371L17.1225 21.8088C16.9261 21.6867 16.6989 21.679 16.5074 21.7579C17.3135 22.457 17.5661 23.6842 16.9491 24.6767C16.8967 24.7609 16.8961 24.8172 16.9017 24.8539C16.9089 24.9013 16.9354 24.9601 16.9877 25.0124C17.0401 25.0648 17.0989 25.0913 17.1463 25.0985C17.183 25.1041 17.2392 25.1034 17.3235 25.0511C18.6446 24.2298 20.3818 24.9493 20.7353 26.4643C20.7578 26.5609 20.7971 26.6011 20.8271 26.6231C20.8657 26.6515 20.926 26.6744 21 26.6744C21.0741 26.6744 21.1344 26.6515 21.173 26.6231C21.2029 26.6011 21.2422 26.5609 21.2647 26.4643C21.6182 24.9493 23.3554 24.2298 24.6766 25.0511C24.7608 25.1034 24.817 25.1041 24.8538 25.0985C24.9011 25.0913 24.9599 25.0648 25.0123 25.0124C25.0647 24.9601 25.0911 24.9013 25.0984 24.8539C25.104 24.8172 25.1033 24.7609 25.0509 24.6767C24.2296 23.3555 24.9492 21.6183 26.4642 21.2649C26.5607 21.2423 26.601 21.203 26.623 21.1731C26.6514 21.1345 26.6742 21.0742 26.6742 21.0002C26.6742 20.9261 26.6514 20.8658 26.623 20.8272C26.601 20.7973 26.5608 20.758 26.4642 20.7354C24.9492 20.382 24.2296 18.6448 25.0509 17.3236C25.1033 17.2394 25.104 17.1831 25.0984 17.1464C25.0911 17.099 25.0647 17.0402 25.0123 16.9879C24.9599 16.9355 24.9011 16.909 24.8538 16.9018C24.817 16.8962 24.7608 16.8969 24.6766 16.9492C23.8063 17.4902 22.7555 17.3627 22.0386 16.7796ZM20.7751 15.159C18.9902 15.5754 18.1425 17.622 19.1101 19.1785L20.7751 15.159ZM21 20.0002C20.8522 20.0002 20.7144 20.0316 20.5908 20.0872C20.3187 20.2095 20.0061 20.204 19.7385 20.072C19.4709 19.9401 19.2762 19.6955 19.2076 19.4051C19.1919 19.339 19.1626 19.2629 19.1101 19.1785M21 20.0002C21.5523 20.0002 22 20.4479 22 21.0002L21 20.0002ZM14.1588 21.7752C14.5752 19.9904 16.6219 19.1426 18.1784 20.1102C18.3856 20.239 18.5651 20.2428 18.7144 20.1973C19.0047 20.1089 19.3195 20.1571 19.5701 20.3283C19.8207 20.4996 19.9799 20.7755 20.003 21.0781C20.0421 21.5935 20.4741 22.0002 21 22.0002C21.5523 22.0002 22 21.5524 22 21.0002M14.1588 21.7752L14.9462 21.9589L14.1588 21.7752ZM15.0814 23.2126C14.9497 23.1818 14.8225 23.1409 14.7005 23.0898C14.2184 22.8882 13.9728 22.3493 14.137 21.8532C14.1449 21.8291 14.1523 21.8032 14.1588 21.7752L14.9462 21.9589" fill="white"/>
<path fillRule="evenodd" clipRule="evenodd" d="M10.8935 6.77053C11.5369 4.01269 15.4631 4.01269 16.1065 6.77053C16.2118 7.22165 16.7291 7.43592 17.1225 7.19136C19.5275 5.69625 22.3037 8.47245 20.8086 10.8775C20.5641 11.2709 20.7783 11.7882 21.2295 11.8935C23.9873 12.5369 23.9873 16.4631 21.2295 17.1065C20.7783 17.2117 20.5641 17.729 20.8086 18.1225C22.3037 20.5275 19.5275 23.3037 17.1225 21.8086C16.7291 21.564 16.2118 21.7783 16.1065 22.2294C15.4631 24.9873 11.5369 24.9873 10.8935 22.2294C10.7882 21.7783 10.2709 21.564 9.87752 21.8086C7.47246 23.3037 4.69627 20.5275 6.19137 18.1225C6.43594 17.729 6.22167 17.2117 5.77054 17.1065C3.0127 16.4631 3.01271 12.5369 5.77054 11.8935C6.22167 11.7882 6.43594 11.2709 6.19137 10.8775C4.69626 8.47245 7.47246 5.69625 9.87752 7.19136C10.2709 7.43592 10.7882 7.22165 10.8935 6.77053ZM14.1588 7.22494C13.9962 6.52788 13.0038 6.52788 12.8412 7.22495C12.4248 9.00977 10.3781 9.85751 8.82162 8.8899C8.21373 8.51201 7.51202 9.21371 7.88992 9.82161C8.85753 11.3781 8.00978 13.4248 6.22496 13.8412C5.5279 14.0038 5.5279 14.9962 6.22496 15.1588C8.00978 15.5752 8.85753 17.6219 7.88992 19.1784C7.51202 19.7863 8.21373 20.488 8.82162 20.1101C10.3781 19.1425 12.4248 19.9902 12.8412 21.775C13.0038 22.4721 13.9962 22.4721 14.1588 21.775C14.5752 19.9902 16.6219 19.1425 18.1784 20.1101C18.7863 20.488 19.488 19.7863 19.1101 19.1784C18.1425 17.6219 18.9902 15.5752 20.775 15.1588C21.4721 14.9962 21.4721 14.0038 20.775 13.8412C18.9902 13.4248 18.1425 11.3781 19.1101 9.82161C19.488 9.21371 18.7863 8.51201 18.1784 8.8899C16.6219 9.85751 14.5752 9.00977 14.1588 7.22494Z" fill="white"/>
<path fillRule="evenodd" clipRule="evenodd" d="M13.5 13C12.6716 13 12 13.6716 12 14.5C12 15.3284 12.6716 16 13.5 16C14.3284 16 15 15.3284 15 14.5C15 13.6716 14.3284 13 13.5 13ZM10 14.5C10 12.567 11.567 11 13.5 11C15.433 11 17 12.567 17 14.5C17 16.433 15.433 18 13.5 18C11.567 18 10 16.433 10 14.5Z" fill="white"/>
</g>
<defs>
<clipPath id="clip0_493_1259">
<rect width="32" height="32" fill="white"/>
</clipPath>
<clipPath id="clip1_493_1259">
<rect width="37" height="38" fill="white" transform="matrix(-1 0 0 -1 29 34)"/>
</clipPath>
</defs>
</svg>
